<?xml version="1.0" encoding="UTF-8" standalone="no"?>
<svg
   xmlns:dc="http://purl.org/dc/elements/1.1/"
   xmlns:cc="http://creativecommons.org/ns#"
   xmlns:rdf="http://www.w3.org/1999/02/22-rdf-syntax-ns#"
   xmlns:svg="http://www.w3.org/2000/svg"
   xmlns="http://www.w3.org/2000/svg"
   xmlns:sodipodi="http://sodipodi.sourceforge.net/DTD/sodipodi-0.dtd"
   xmlns:inkscape="http://www.inkscape.org/namespaces/inkscape"
   width="32"
   height="20"
   viewBox="0 0 8.4666666 5.2916669"
   version="1.1"
   id="svg1027"
   inkscape:version="1.0.2 (e86c870879, 2021-01-15)"
   sodipodi:docname="konfoo-add-icon-2.svg">
  <defs
     id="defs1021" />
  <sodipodi:namedview
     id="base"
     pagecolor="#ffffff"
     bordercolor="#666666"
     borderopacity="1.0"
     inkscape:pageopacity="0.0"
     inkscape:pageshadow="2"
     inkscape:zoom="32"
     inkscape:cx="8.3819928"
     inkscape:cy="15.481997"
     inkscape:document-units="mm"
     inkscape:current-layer="layer1"
     inkscape:document-rotation="0"
     showgrid="false"
     units="px"
     inkscape:pagecheckerboard="true"
     inkscape:window-width="3840"
     inkscape:window-height="2123"
     inkscape:window-x="0"
     inkscape:window-y="0"
     inkscape:window-maximized="1" />
  <metadata
     id="metadata1024">
    <rdf:RDF>
      <cc:Work
         rdf:about="">
        <dc:format>image/svg+xml</dc:format>
        <dc:type
           rdf:resource="http://purl.org/dc/dcmitype/StillImage" />
        <dc:title></dc:title>
      </cc:Work>
    </rdf:RDF>
  </metadata>
  <g
     inkscape:label="Layer 1"
     inkscape:groupmode="layer"
     id="layer1">
    <g
       id="g1691"
       transform="translate(0,-0.00722737)">
      <g
         id="g1042"
         transform="matrix(0.03169773,0,0,0.03169773,58.729931,-2.7121506)"
         style="fill:#ffffff;fill-opacity:1;stroke:#ffffff;stroke-opacity:1">
        <g
           id="g1038"
           transform="matrix(1.6412919,0,0,1.6412919,736.52454,-100.02804)"
           style="fill:#ffffff;fill-opacity:1;stroke:#ffffff;stroke-opacity:1">
          <g
             inkscape:label="Rendered Gears"
             transform="translate(-1490.27,162.9624)"
             id="g1036"
             style="fill:#ffffff;fill-opacity:1;stroke:#ffffff;stroke-opacity:1">
            <path
               id="path1034"
               style="fill:#ffffff;fill-opacity:1;stroke:#ffffff;stroke-width:1.64129;stroke-opacity:1"
               d="m -1715.6992,89.326172 -5.9746,16.626948 0.076,0.95508 2.8965,14.4336 -16.7968,6.95703 -8.1563,-12.25391 -0.6211,-0.73047 -15.9805,-7.5332 -8.8496,8.84766 7.5332,15.98242 0.7305,0.62109 12.2559,8.15625 -6.959,16.79688 -14.4317,-2.89844 -0.955,-0.0762 -16.6289,5.97461 v 12.51172 l 16.6289,5.97461 0.955,-0.0781 14.4317,-2.89648 4.8008,11.58789 c 3.4127,-3.41276 6.8255,-6.82552 10.2382,-10.23828 a 32.825838,32.825838 0 0 1 -1.7617,-10.60547 32.825838,32.825838 0 0 1 32.8125,-32.82618 32.825838,32.825838 0 0 1 0.012,0 32.825838,32.825838 0 0 1 32.8262,32.82618 32.825838,32.825838 0 0 1 -32.8262,32.82617 32.825838,32.825838 0 0 1 -10.5507,-1.74414 c -3.4133,3.4135 -6.827,6.82673 -10.2403,10.24023 l 11.5332,4.77735 -2.8965,14.43164 -0.076,0.95703 5.9746,16.62695 h 12.5137 l 5.9746,-16.62695 -0.078,-0.95703 -2.8984,-14.43164 16.7969,-6.95704 8.1562,12.25391 0.6211,0.73047 15.9824,7.5332 8.8477,-8.84765 -7.5332,-15.98243 -0.7305,-0.62109 -12.2539,-8.15625 6.957,-16.79687 14.4336,2.89648 0.9551,0.0781 16.6289,-5.97461 v -12.51172 l -16.6289,-5.97461 -0.9551,0.0762 -14.4336,2.89844 -6.957,-16.79688 12.2539,-8.15625 0.7305,-0.62109 7.5332,-15.98242 -8.8477,-8.84766 -15.9824,7.5332 -0.6211,0.73047 -8.1562,12.25391 -16.7969,-6.95703 2.8984,-14.4336 0.078,-0.95508 -5.9746,-16.626948 z"
               transform="matrix(0.60927614,0,0,0.60927614,1041.5232,-102.0177)" />
          </g>
        </g>
        <path
           id="path1040"
           style="fill:#ffffff;fill-opacity:1;stroke:#ffffff;stroke-width:0.682372;stroke-linecap:round;stroke-linejoin:round;stroke-miterlimit:4;stroke-dasharray:none;stroke-opacity:1"
           d="m -1723.6862,153.37983 c -4.8187,4.91848 -6.7684,11.96983 -5.1611,18.66517 l -19.8307,19.83073 14.8381,14.83819 19.8654,-19.86531 c 6.7404,1.58343 13.8203,-0.43208 18.7162,-5.32812 4.8961,-4.89587 6.9116,-11.97583 5.3281,-18.71627 l -15.3209,14.7505 -9.7605,-5.136 -5.0777,-9.70219 15.3555,-14.78501 c -6.7655,-1.62376 -13.8887,0.38522 -18.8088,5.3047 -0.048,0.0476 -0.096,0.0955 -0.1436,0.14361 z m -62.0942,62.15497 c -4.912,4.91202 -6.9233,12.021 -5.313,18.77839 l 14.8184,-15.37026 9.9775,4.82835 4.8607,10.00985 -14.806,15.35781 c 6.7486,1.59682 13.8428,-0.41634 18.7467,-5.31989 4.9082,-4.90855 6.9202,-12.01104 5.3157,-18.76454 l 18.3405,-18.34059 -14.8381,-14.83819 -18.342,18.342 c -6.7524,-1.60262 -13.853,0.40981 -18.7604,5.31705 z"
           sodipodi:nodetypes="cccccscccccscsccccccccccss" />
      </g>
      <g
         id="g1048"
         transform="matrix(0.01918897,0,0,0.01918897,36.120279,8.10039)"
         style="fill:#ffffff;fill-opacity:1;stroke:#ffffff;stroke-opacity:1">
        <rect
           style="fill:#ffffff;fill-opacity:1;stroke:#ffffff;stroke-width:1.49155;stroke-linecap:round;stroke-linejoin:round;stroke-opacity:1"
           id="rect1044"
           width="110"
           height="19.880859"
           x="-1875"
           y="-344.88086" />
        <rect
           style="fill:#ffffff;fill-opacity:1;stroke:#ffffff;stroke-width:1.49155;stroke-linecap:round;stroke-linejoin:round;stroke-opacity:1"
           id="rect1046"
           width="110"
           height="19.880859"
           x="-389.94043"
           y="1810.0596"
           transform="rotate(90)" />
      </g>
    </g>
  </g>
</svg>
